# xmcd
#
# Track frame offsets:
#	150
#	20912
#	37450
#	54025
#	73982
#	90542
#	108895
#	131395
#	169870
#	190217
#	202720
#
# Disc length: 3310 seconds
#
# Revision: 1
# Processed by: cddbd v1.5.1PL0 Copyright (c) Steve Scherf et al.
# Submitted via: audiograbber 1.83.01
#
DISCID=950cec0b
DTITLE=The Blues Alligators - The Blues Alligators
DYEAR=1998
DGENRE=Blues
TTITLE0=Let The Good Times Roll (Sam theard/Fleecy Moore]\nLet The Good Times R
TTITLE0=oll (Sam theard/Fleecy Moore)
TTITLE1=How Blue Can You Get (Mel London)
TTITLE2=Frosty (Albert Collins)
TTITLE3=Trick Bag (Earl King)
TTITLE4=Two Bones And A Pick (Aaron Walter]\nTwo Bones And A Pick (Aaron Walter
TTITLE4=]\nTwo Bones And A Pick (Aaron Walter)
TTITLE5=Woke Up This Morning (B.B.King)
TTITLE6=Dangrerous Mood (Kevin Moore/Candy Parton)
TTITLE7=Anything It Takes (Duke Robilliard)
TTITLE8=Crosscut Saw (R.G.Ford)
TTITLE9=Rockin With B.B. (Denny Freeman)
TTITLE10=Get Out My Life, Woman (Allan Toussant
EXTD=Recorded live at the Flöz Berlin,\nDez 1998\nContact: Gero Seelig\nKaiserk
EXTD=orso 2, 12101 Berlin\nProduced by Julius Seelig
EXTT0=
EXTT1=
EXTT2=
EXTT3=
EXTT4=
EXTT5=
EXTT6=
EXTT7=
EXTT8=
EXTT9=
EXTT10=
PLAYORDER=
